HIERARCHY
ROOT Hip
{
	OFFSET	0.0000	0.0000	0.0000
	CHANNELS 6 Xposition Yposition Zposition Xrotation Yrotation Zrotation
	JOINT LowerSpine
	{
		OFFSET	0.0000	8.3453	-5.1292
		CHANNELS 3 Xrotation Yrotation Zrotation
		JOINT MiddleSpine
		{
			OFFSET	10.8569	0.0000	0.0000
			CHANNELS 3 Xrotation Yrotation Zrotation
			JOINT Chest
			{
				OFFSET	15.2984	0.0000	0.0000
				CHANNELS 3 Xrotation Yrotation Zrotation
				JOINT Neck
				{
					OFFSET	25.6618	-0.5986	0.0000
					CHANNELS 3 Xrotation Yrotation Zrotation
					JOINT Head
					{
						OFFSET	8.8829	0.0000	0.0000
						CHANNELS 3 Xrotation Yrotation Zrotation
						End Site
						{
							OFFSET	19.7399	0.0000	0.0000
						}
					}
				}
				JOINT RClavicle
				{
					OFFSET	23.6878	0.0000	3.1584
					CHANNELS 3 Xrotation Yrotation Zrotation
					JOINT RShoulder
					{
						OFFSET	-15.5945	-3.9480	0.9870
						CHANNELS 3 Xrotation Yrotation Zrotation
						JOINT RForearm
						{
							OFFSET	-31.3370	0.0000	0.1974
							CHANNELS 3 Xrotation Yrotation Zrotation
							JOINT RHand
							{
								OFFSET	-26.4021	0.0000	0.0000
								CHANNELS 3 Xrotation Yrotation Zrotation
								End Site
								{
									OFFSET	-15.7919	-0.9870	0.0000
								}
							}
						}
					}
				}
				JOINT LClavicle
				{
					OFFSET	23.6878	0.0000	-3.1584
					CHANNELS 3 Xrotation Yrotation Zrotation
					JOINT LShoulder
					{
						OFFSET	-15.5945	-3.9480	-0.9870
						CHANNELS 3 Xrotation Yrotation Zrotation
						JOINT LForearm
						{
							OFFSET	-31.3370	0.0000	-0.1974
							CHANNELS 3 Xrotation Yrotation Zrotation
							JOINT LHand
							{
								OFFSET	-26.4021	0.0000	0.0000
								CHANNELS 3 Xrotation Yrotation Zrotation
								End Site
								{
									OFFSET	-15.7919	-0.9870	0.0000
								}
							}
						}
					}
				}
			}
		}
	}
	JOINT RThigh
	{
		OFFSET	-8.8829	0.4481	0.0000
		CHANNELS 3 Xrotation Yrotation Zrotation
		JOINT RShin
		{
			OFFSET	43.1316	0.0000	-0.4935
			CHANNELS 3 Xrotation Yrotation Zrotation
			JOINT RFoot
			{
				OFFSET	0.0000	-44.7256	-0.4047
				CHANNELS 3 Xrotation Yrotation Zrotation
				JOINT RToe
				{
					OFFSET	0.0000	-3.9332	12.1953
					CHANNELS 3 Xrotation Yrotation Zrotation
					End Site
					{
						OFFSET	6.7725	0.0000	0.0000
					}
				}
			}
		}
	}
	JOINT LThigh
	{
		OFFSET	8.8829	0.4481	0.0000
		CHANNELS 3 Xrotation Yrotation Zrotation
		JOINT LShin
		{
			OFFSET	43.1316	0.0000	0.4935
			CHANNELS 3 Xrotation Yrotation Zrotation
			JOINT LFoot
			{
				OFFSET	0.0000	-44.7256	0.4047
				CHANNELS 3 Xrotation Yrotation Zrotation
				JOINT LToe
				{
					OFFSET	0.0000	-3.9332	-12.1953
					CHANNELS 3 Xrotation Yrotation Zrotation
					End Site
					{
						OFFSET	6.7725	0.0000	0.0000
					}
				}
			}
		}
	}
}
MOTION
Frames:	17
Frame Time: 0.0169491000
	-6.5144	91.7589	-0.5022	-6.163438	23.651950	0.291804	-89.999990	-90.000000	0.000000	0.992424	-0.939991	-0.044575	3.307715	-3.135405	-0.085185	0.000000	0.000000	0.000000	0.000000	0.000000	0.000000	89.996220	-0.297043	-86.009150	8.276069	32.497920	70.004270	5.345585	43.549580	-8.101503	0.000000	0.000000	0.000000	-89.995640	0.136163	-88.169940	-14.635030	0.515639	80.814540	-165.586900	-67.227060	-164.699900	0.000000	0.000000	0.000000	-11.321690	79.933820	-70.705300	89.927350	8.105268	89.996850	-11.155100	-7.221663	-3.803158	179.996600	90.000000	0.000000	-64.523940	84.278640	-36.572780	-89.693860	-31.557540	90.053410	5.805632	-3.764582	1.575078	189.018900	-90.000000	0.000000
	-6.5661	91.9420	-0.3065	-6.391973	23.302220	0.446170	-89.999990	-90.000000	0.000000	0.885432	-0.904943	-0.000539	2.953457	-3.015801	0.052694	0.000000	0.000000	0.000000	0.000000	0.000000	0.000000	89.995770	-0.274071	-86.317720	9.335161	31.500860	71.448970	5.433599	43.994360	-8.162391	0.000000	0.000000	0.000000	-89.995860	0.122988	-88.346930	-12.012140	-0.989834	78.802730	-165.477600	-67.380680	-164.599000	0.000000	0.000000	0.000000	-11.763090	80.382840	-68.972530	89.945520	6.087708	89.996670	-9.891388	-7.223711	-3.580329	179.994700	90.000000	0.000000	-66.118740	84.442110	-32.817250	-89.730060	-28.355590	90.038600	6.632089	-3.443249	1.481127	186.980700	-90.000000	0.000000
	-6.5961	92.0960	-0.0861	-6.629982	22.082500	0.704232	-89.999990	-90.000000	0.000000	0.800273	-0.854593	0.049820	2.672132	-2.845350	0.212606	0.000000	0.000000	0.000000	0.000000	0.000000	0.000000	89.995480	-0.253505	-86.593980	10.471250	30.621380	72.629370	5.579397	44.716600	-8.264321	0.000000	0.000000	0.000000	-89.996250	0.104843	-88.590680	-10.470380	-1.653874	77.237240	-165.414400	-67.468600	-164.540600	0.000000	0.000000	0.000000	-13.102410	81.770650	-66.791700	89.956500	4.864164	89.996870	-9.074506	-7.246307	-3.402326	179.991100	90.000000	0.000000	-67.415760	84.788580	-29.065270	-89.767190	-24.878310	90.025510	7.196988	-2.359176	1.046324	185.171700	-90.000000	0.000000
	-6.6459	92.2102	0.1350	-6.853426	20.254100	0.957468	-89.999990	-90.000000	0.000000	0.734932	-0.788111	0.108122	2.456891	-2.621135	0.399854	0.000000	0.000000	0.000000	0.000000	0.000000	0.000000	89.995350	-0.240234	-86.772220	11.879720	29.865840	73.514270	5.754247	45.559360	-8.388260	0.000000	0.000000	0.000000	-89.996620	0.090076	-88.789070	-9.676737	-1.484395	76.386100	-165.395800	-67.494320	-164.523500	0.000000	0.000000	0.000000	-13.643660	82.995990	-65.706990	89.962620	4.181010	89.997090	-8.616670	-6.800477	-3.115916	179.979100	90.000000	0.000000	-69.657370	85.178650	-24.530530	-89.797860	-21.869690	90.016430	7.635083	-1.193544	0.564113	183.702300	-90.000000	0.000000
	-6.7257	92.2875	0.3034	-7.083818	18.400850	1.169928	-89.999990	-90.000000	0.000000	0.680563	-0.709046	0.170060	2.277758	-2.355199	0.599765	0.000000	0.000000	0.000000	0.000000	0.000000	0.000000	89.995330	-0.238699	-86.792850	13.319660	29.278370	74.065220	5.890600	46.199330	-8.486145	0.000000	0.000000	0.000000	-89.996700	0.086749	-88.833730	-8.963999	-0.912057	75.939760	-165.213400	-67.743680	-164.354800	0.000000	0.000000	0.000000	-11.964550	83.542920	-67.129940	89.963520	4.080159	89.997120	-8.510339	-5.944295	-2.713730	179.970700	90.000000	0.000000	-71.029470	85.458980	-21.384700	-89.818360	-19.793430	90.011250	7.882601	-0.461890	0.240313	182.803500	-90.000000	0.000000
	-6.7668	92.3386	0.4167	-7.297235	16.953240	1.419900	-89.999990	-90.000000	0.000000	0.626273	-0.624334	0.225421	2.097874	-2.071195	0.778096	0.000000	0.000000	0.000000	0.000000	0.000000	0.000000	89.995450	-0.250285	-86.637250	14.565370	28.113240	74.438900	6.085616	47.089110	-8.627946	0.000000	0.000000	0.000000	-89.996380	0.099387	-88.663960	-8.029070	-0.657287	75.031780	-164.787500	-68.305310	-163.959900	0.000000	0.000000	0.000000	-8.547648	83.736230	-70.511280	89.960760	4.387839	89.997010	-8.690630	-5.280068	-2.424367	179.980700	90.000000	0.000000	-67.833280	85.703350	-23.325680	-89.831200	-18.468960	90.008390	7.830455	0.281791	-0.121193	182.477900	-90.000000	0.000000
	-6.7509	92.3739	0.5290	-7.435898	15.799110	1.694580	-89.999990	-90.000000	0.000000	0.563853	-0.541348	0.262474	1.889633	-1.794206	0.895804	0.000000	0.000000	0.000000	0.000000	0.000000	0.000000	89.995740	-0.272296	-86.341540	15.787090	25.998210	74.885290	6.435740	48.614290	-8.887556	0.000000	0.000000	0.000000	-89.995780	0.127671	-88.284070	-6.957075	-1.070796	73.439940	-164.378400	-68.818940	-163.579100	0.000000	0.000000	0.000000	-3.755691	83.608330	-75.363550	89.957240	4.781796	89.996890	-8.922504	-4.553205	-2.110969	179.995000	90.000000	0.000000	-61.268460	85.945090	-28.952290	-89.840360	-17.513610	90.006540	7.600920	1.402363	-0.659221	182.474400	-90.000000	0.000000
	-6.7567	92.3948	0.6273	-7.477641	14.780800	1.846872	-89.999990	-90.000000	0.000000	0.490625	-0.465051	0.274449	1.644328	-1.540735	0.930616	0.000000	0.000000	0.000000	0.000000	0.000000	0.000000	89.996250	-0.298965	-85.983240	17.109420	23.778730	75.234650	6.906622	50.527970	-9.246048	0.000000	0.000000	0.000000	-89.995260	0.167133	-87.753980	-5.791049	-1.732237	71.871910	-164.094000	-69.162070	-163.313500	0.000000	0.000000	0.000000	0.904927	82.842000	-80.267230	89.952070	5.357802	89.996750	-9.165849	-3.238747	-1.511573	179.995500	90.000000	0.000000	-54.880550	86.073400	-34.614650	-89.847810	-16.731020	90.005160	7.502470	2.584931	-1.214393	182.342000	-90.000000	0.000000
	-6.7958	92.3944	0.6730	-7.453827	13.841120	1.873335	-89.999990	-90.000000	0.000000	0.409719	-0.397226	0.263589	1.372887	-1.315927	0.890429	0.000000	0.000000	0.000000	0.000000	0.000000	0.000000	89.996880	-0.323688	-85.651030	18.422970	22.047430	75.295040	7.456217	52.578700	-9.676554	0.000000	0.000000	0.000000	-89.995120	0.211058	-87.164020	-4.596470	-2.322274	70.485150	-163.693900	-69.626270	-162.939000	0.000000	0.000000	0.000000	3.975230	81.778900	-83.806660	89.944470	6.203807	89.996650	-9.474057	-1.640178	-0.763968	179.983600	90.000000	0.000000	-50.427900	86.125740	-38.599000	-89.852470	-16.238510	90.004330	7.660620	3.416938	-1.612470	181.932600	-90.000000	0.000000
	-6.8082	92.3750	0.6695	-7.338443	12.752830	1.919498	-89.999990	-90.000000	0.000000	0.328250	-0.337688	0.239963	1.099573	-1.118159	0.808996	0.000000	0.000000	0.000000	0.000000	0.000000	0.000000	89.997410	-0.341200	-85.415730	19.570450	20.735980	75.252030	8.049032	54.592040	-10.153690	0.000000	0.000000	0.000000	-89.995380	0.252621	-86.605720	-3.450386	-3.033704	68.795350	-162.990100	-70.394430	-162.277600	0.000000	0.000000	0.000000	6.276307	81.226860	-86.744610	89.936480	7.092313	89.996670	-9.821697	-0.365383	-0.154603	179.975700	90.000000	0.000000	-49.615060	86.376210	-39.352360	-89.851970	-16.292000	90.004430	7.771503	3.795400	-1.805729	181.869000	-90.000000	0.000000
	-6.8207	92.3530	0.6193	-7.099587	11.517960	2.004900	-89.999990	-90.000000	0.000000	0.254550	-0.285809	0.216091	0.852647	-0.945139	0.727267	0.000000	0.000000	0.000000	0.000000	0.000000	0.000000	89.997660	-0.348729	-85.314540	20.424360	19.868120	75.300120	8.569037	56.206120	-10.581770	0.000000	0.000000	0.000000	-89.995910	0.286410	-86.151840	-2.303794	-4.034020	66.892230	-161.870300	-71.502880	-161.219100	0.000000	0.000000	0.000000	8.225220	81.312490	-89.511640	89.928540	7.973284	89.996810	-10.219820	0.365958	0.210836	179.983700	90.000000	0.000000	-55.180710	86.885130	-34.164710	-89.847020	-16.814020	90.005290	7.576087	4.006730	-1.907036	182.503700	-90.000000	0.000000
	-6.8766	92.3212	0.5374	-6.831599	10.430360	2.038193	-89.999990	-90.000000	0.000000	0.196793	-0.243091	0.200523	0.655225	-0.796696	0.672849	0.000000	0.000000	0.000000	0.000000	0.000000	0.000000	89.997570	-0.346072	-85.350230	21.161100	19.225970	75.492820	9.017775	57.496170	-10.957500	0.000000	0.000000	0.000000	-89.996410	0.308695	-85.852490	-1.123171	-5.355113	65.367800	-159.999500	-73.094160	-159.436700	0.000000	0.000000	0.000000	9.304484	81.836520	-91.466070	89.920270	8.887693	89.997080	-10.694180	0.587097	0.333120	179.995800	90.000000	0.000000	-70.520290	87.351360	-19.641600	-89.836610	-17.906580	90.007290	7.233371	4.296227	-2.026526	183.497100	-90.000000	0.000000
	-6.9264	92.2431	0.4588	-6.627907	9.632161	2.016906	-89.999990	-90.000000	0.000000	0.161506	-0.214647	0.194179	0.518288	-0.674502	0.649546	0.000000	0.000000	0.000000	0.000000	0.000000	0.000000	89.997210	-0.335001	-85.499050	22.088600	18.354510	75.852550	9.582867	58.998420	-11.438050	0.000000	0.000000	0.000000	-89.996620	0.317111	-85.739360	0.078621	-6.871224	64.581280	-157.010000	-75.120780	-156.561000	0.000000	0.000000	0.000000	9.687152	83.025710	-92.672870	89.910930	9.919797	89.997550	-11.334860	0.162590	0.120797	180.000000	90.000000	0.000000	-94.224200	87.409130	2.681090	-89.815480	-20.088230	90.011940	6.887847	4.234593	-1.968405	184.852100	-90.000000	0.000000
	-6.9313	92.0960	0.3999	-6.465435	9.089873	1.984221	-89.999990	-90.000000	0.000000	0.125808	-0.173662	0.199006	0.438500	-0.582943	0.643664	0.000000	0.000000	0.000000	0.000000	0.000000	0.000000	89.996730	-0.318436	-85.721600	23.216400	17.186480	76.336540	10.388310	60.930560	-12.135440	0.000000	0.000000	0.000000	-89.996460	0.310932	-85.822370	1.174708	-8.257288	64.432680	-153.402900	-76.970850	-153.059800	0.000000	0.000000	0.000000	9.744739	84.663680	-93.809840	89.895460	11.616540	89.998700	-12.255410	-0.774339	-0.407281	180.000000	90.000000	0.000000	-113.449200	87.011820	20.047760	-89.783830	-23.261230	90.020390	6.531857	3.503426	-1.597775	186.678300	-90.000000	0.000000
	-6.9239	91.8880	0.3394	-6.281361	8.624071	1.925013	-89.999990	-90.000000	0.000000	0.114060	-0.154570	0.202680	0.400792	-0.528218	0.638093	0.000000	0.000000	0.000000	0.000000	0.000000	0.000000	89.996270	-0.299637	-85.974210	24.301000	16.055010	76.787900	11.368600	62.997470	-13.000840	0.000000	0.000000	0.000000	-89.996030	0.292128	-86.075010	2.043239	-9.295387	64.609090	-150.228200	-78.227350	-149.958900	0.000000	0.000000	0.000000	9.693446	85.901610	-95.333750	89.871220	14.245740	90.001430	-13.389850	-1.530131	-0.863547	180.000000	90.000000	0.000000	-122.762000	86.532040	27.300270	-89.747140	-26.779530	90.032320	6.184526	2.727871	-1.212661	188.671900	-90.000000	0.000000
	-6.9348	91.6556	0.2413	-6.046541	7.960362	1.827405	-89.999990	-90.000000	0.000000	0.114259	-0.135900	0.172840	0.369981	-0.481837	0.581353	0.000000	0.000000	0.000000	0.000000	0.000000	0.000000	89.995900	-0.281238	-86.221400	25.135250	15.236060	77.073550	12.354920	64.812510	-13.886730	0.000000	0.000000	0.000000	-89.995560	0.266043	-86.425420	2.713202	-10.038000	64.921530	-146.870700	-79.288000	-146.665700	0.000000	0.000000	0.000000	9.966113	86.488420	-97.312600	89.845660	16.964980	90.005520	-14.522240	-1.675442	-0.961754	180.000000	90.000000	0.000000	-127.036100	86.160530	29.553110	-89.710170	-30.137090	90.046500	5.804324	2.484476	-1.070259	190.574500	-90.000000	0.000000
	-6.9393	91.4346	0.1172	-5.775649	7.037877	1.731094	-89.999990	-90.000000	0.000000	0.108161	-0.141623	0.158378	0.348703	-0.487273	0.541923	0.000000	0.000000	0.000000	0.000000	0.000000	0.000000	89.995620	-0.264330	-86.448490	25.708130	14.726340	77.215180	13.249240	66.266030	-14.700850	0.000000	0.000000	0.000000	-89.995250	0.240223	-86.772180	3.184330	-10.509060	65.304440	-142.397500	-80.393290	-142.262300	0.000000	0.000000	0.000000	11.248180	86.808260	-100.033200	89.826060	19.009650	90.009480	-15.433010	-1.365829	-0.781071	179.981900	90.000000	0.000000	-130.332900	85.864880	31.100120	-89.677190	-32.968520	90.060870	5.362854	2.592034	-1.089425	192.277400	-90.000000	0.000000
